<mxfile host="Electron" modified="2023-07-18T04:20:53.639Z" agent="Mozilla/5.0 (Macintosh; Intel Mac OS X 10_15_7) AppleWebKit/537.36 (KHTML, like Gecko) draw.io/21.6.1 Chrome/112.0.5615.204 Electron/24.6.1 Safari/537.36" etag="z3AKnOKypMTPZbNcsFvk" version="21.6.1" type="device">
  <diagram name="Page-1" id="zgPx2oZsI7QNtVN-BKuG">
    <mxGraphModel dx="2874" dy="1664" grid="1" gridSize="10" guides="1" tooltips="1" connect="1" arrows="1" fold="1" page="1" pageScale="1" pageWidth="850" pageHeight="1100" math="0" shadow="0">
      <root>
        <mxCell id="0" />
        <mxCell id="1" parent="0" />
        <mxCell id="lIrOp1fcAPk25jo59Fhx-2" value="" style="swimlane;whiteSpace=wrap;html=1;" parent="1" vertex="1">
          <mxGeometry x="140" y="20" width="1030" height="790" as="geometry" />
        </mxCell>
        <mxCell id="lIrOp1fcAPk25jo59Fhx-1" value="" style="verticalLabelPosition=bottom;html=1;verticalAlign=top;align=center;strokeColor=none;fillColor=#00BEF2;shape=mxgraph.azure.git_repository;" parent="lIrOp1fcAPk25jo59Fhx-2" vertex="1">
          <mxGeometry y="30" width="50" height="50" as="geometry" />
        </mxCell>
        <mxCell id="lIrOp1fcAPk25jo59Fhx-22" style="edgeStyle=orthogonalEdgeStyle;rounded=0;orthogonalLoop=1;jettySize=auto;html=1;entryX=0;entryY=0;entryDx=0;entryDy=0;" parent="lIrOp1fcAPk25jo59Fhx-2" source="lIrOp1fcAPk25jo59Fhx-6" target="lIrOp1fcAPk25jo59Fhx-15" edge="1">
          <mxGeometry relative="1" as="geometry">
            <Array as="points">
              <mxPoint x="325" y="200" />
              <mxPoint x="325" y="90" />
            </Array>
          </mxGeometry>
        </mxCell>
        <mxCell id="lIrOp1fcAPk25jo59Fhx-10" value="" style="swimlane;startSize=0;" parent="lIrOp1fcAPk25jo59Fhx-2" vertex="1">
          <mxGeometry x="50" y="89.5" width="230" height="290.5" as="geometry" />
        </mxCell>
        <mxCell id="lIrOp1fcAPk25jo59Fhx-4" value="environment" style="html=1;verticalLabelPosition=middle;align=left;labelBackgroundColor=#ffffff;verticalAlign=middle;strokeWidth=2;strokeColor=#0080F0;shadow=0;dashed=0;shape=mxgraph.ios7.icons.folder;labelPosition=right;" parent="lIrOp1fcAPk25jo59Fhx-10" vertex="1">
          <mxGeometry width="30" height="19.5" as="geometry" />
        </mxCell>
        <mxCell id="lIrOp1fcAPk25jo59Fhx-6" value="dev" style="html=1;verticalLabelPosition=bottom;align=center;labelBackgroundColor=#ffffff;verticalAlign=top;strokeWidth=2;strokeColor=#0080F0;shadow=0;dashed=0;shape=mxgraph.ios7.icons.folder;" parent="lIrOp1fcAPk25jo59Fhx-10" vertex="1">
          <mxGeometry x="105" y="100.5" width="30" height="19.5" as="geometry" />
        </mxCell>
        <mxCell id="lIrOp1fcAPk25jo59Fhx-11" value="" style="swimlane;startSize=0;" parent="lIrOp1fcAPk25jo59Fhx-2" vertex="1">
          <mxGeometry x="50" y="385" width="300" height="395" as="geometry" />
        </mxCell>
        <mxCell id="lIrOp1fcAPk25jo59Fhx-13" value="code_s3_objects" style="html=1;verticalLabelPosition=bottom;align=center;labelBackgroundColor=#ffffff;verticalAlign=top;strokeWidth=2;strokeColor=#0080F0;shadow=0;dashed=0;shape=mxgraph.ios7.icons.folder;" parent="lIrOp1fcAPk25jo59Fhx-11" vertex="1">
          <mxGeometry x="135" y="115" width="30" height="19.5" as="geometry" />
        </mxCell>
        <mxCell id="lIrOp1fcAPk25jo59Fhx-14" value="serverless-code" style="html=1;verticalLabelPosition=bottom;align=center;labelBackgroundColor=#ffffff;verticalAlign=top;strokeWidth=2;strokeColor=#0080F0;shadow=0;dashed=0;shape=mxgraph.ios7.icons.folder;" parent="lIrOp1fcAPk25jo59Fhx-11" vertex="1">
          <mxGeometry x="140" y="303" width="30" height="19.5" as="geometry" />
        </mxCell>
        <mxCell id="lIrOp1fcAPk25jo59Fhx-3" value="modules" style="html=1;verticalLabelPosition=middle;align=left;labelBackgroundColor=#ffffff;verticalAlign=middle;strokeWidth=2;strokeColor=#0080F0;shadow=0;dashed=0;shape=mxgraph.ios7.icons.folder;labelPosition=right;" parent="lIrOp1fcAPk25jo59Fhx-11" vertex="1">
          <mxGeometry width="30" height="19.5" as="geometry" />
        </mxCell>
        <mxCell id="lIrOp1fcAPk25jo59Fhx-25" value="Stores Lambda and Step Function code into S3" style="text;strokeColor=#666666;align=center;fillColor=#f5f5f5;html=1;verticalAlign=middle;whiteSpace=wrap;rounded=0;fontColor=#333333;" parent="lIrOp1fcAPk25jo59Fhx-11" vertex="1">
          <mxGeometry x="65" y="165" width="170" height="30" as="geometry" />
        </mxCell>
        <mxCell id="lIrOp1fcAPk25jo59Fhx-26" value="Connects all the parts" style="text;strokeColor=#666666;align=center;fillColor=#f5f5f5;html=1;verticalAlign=middle;whiteSpace=wrap;rounded=0;fontColor=#333333;" parent="lIrOp1fcAPk25jo59Fhx-11" vertex="1">
          <mxGeometry x="70" y="345" width="170" height="30" as="geometry" />
        </mxCell>
        <mxCell id="5S0icPOuOxjpw4oU534_-4" value="iam" style="html=1;verticalLabelPosition=bottom;align=center;labelBackgroundColor=#ffffff;verticalAlign=top;strokeWidth=2;strokeColor=#0080F0;shadow=0;dashed=0;shape=mxgraph.ios7.icons.folder;" parent="lIrOp1fcAPk25jo59Fhx-11" vertex="1">
          <mxGeometry x="140" y="33" width="30" height="19.5" as="geometry" />
        </mxCell>
        <mxCell id="5S0icPOuOxjpw4oU534_-5" value="Creates the required IAM Roles" style="text;strokeColor=#666666;align=center;fillColor=#f5f5f5;html=1;verticalAlign=middle;whiteSpace=wrap;rounded=0;fontColor=#333333;" parent="lIrOp1fcAPk25jo59Fhx-11" vertex="1">
          <mxGeometry x="50" y="75" width="190" height="30" as="geometry" />
        </mxCell>
        <mxCell id="5S0icPOuOxjpw4oU534_-6" style="edgeStyle=orthogonalEdgeStyle;rounded=0;orthogonalLoop=1;jettySize=auto;html=1;fillColor=#d5e8d4;strokeColor=#82b366;" parent="lIrOp1fcAPk25jo59Fhx-11" target="5S0icPOuOxjpw4oU534_-4" edge="1">
          <mxGeometry relative="1" as="geometry">
            <Array as="points">
              <mxPoint x="380" y="-245" />
              <mxPoint x="310" y="-245" />
              <mxPoint x="310" y="43" />
            </Array>
            <mxPoint x="380" y="-105" as="sourcePoint" />
          </mxGeometry>
        </mxCell>
        <mxCell id="lIrOp1fcAPk25jo59Fhx-12" value="ssm-automation" style="html=1;verticalLabelPosition=bottom;align=center;labelBackgroundColor=#ffffff;verticalAlign=top;strokeWidth=2;strokeColor=#0080F0;shadow=0;dashed=0;shape=mxgraph.ios7.icons.folder;" parent="lIrOp1fcAPk25jo59Fhx-11" vertex="1">
          <mxGeometry x="137.5" y="215" width="30" height="19.5" as="geometry" />
        </mxCell>
        <mxCell id="lIrOp1fcAPk25jo59Fhx-24" value="Creates SSM Document" style="text;strokeColor=#666666;align=center;fillColor=#f5f5f5;html=1;verticalAlign=middle;whiteSpace=wrap;rounded=0;fontColor=#333333;" parent="lIrOp1fcAPk25jo59Fhx-11" vertex="1">
          <mxGeometry x="87.5" y="256" width="125" height="35" as="geometry" />
        </mxCell>
        <mxCell id="lIrOp1fcAPk25jo59Fhx-15" value="" style="swimlane;startSize=0;" parent="lIrOp1fcAPk25jo59Fhx-2" vertex="1">
          <mxGeometry x="420" y="90" width="570" height="690" as="geometry" />
        </mxCell>
        <mxCell id="lIrOp1fcAPk25jo59Fhx-16" value="dev" style="html=1;verticalLabelPosition=middle;align=left;labelBackgroundColor=#ffffff;verticalAlign=middle;strokeWidth=2;strokeColor=#0080F0;shadow=0;dashed=0;shape=mxgraph.ios7.icons.folder;labelPosition=right;" parent="lIrOp1fcAPk25jo59Fhx-15" vertex="1">
          <mxGeometry y="-0.5" width="30" height="19.5" as="geometry" />
        </mxCell>
        <mxCell id="lIrOp1fcAPk25jo59Fhx-18" value="&lt;div style=&quot;color: #cccccc ; background-color: #1f1f1f ; font-family: &amp;#34;menlo&amp;#34; , &amp;#34;monaco&amp;#34; , &amp;#34;courier new&amp;#34; , monospace ; font-weight: normal ; font-size: 12px ; line-height: 18px ; white-space: pre&quot;&gt;&lt;div&gt;&lt;span style=&quot;color: #569cd6&quot;&gt;module&lt;/span&gt;&lt;span style=&quot;color: #cccccc&quot;&gt; &lt;/span&gt;&lt;span style=&quot;color: #ce9178&quot;&gt;&quot;iam&quot;&lt;/span&gt;&lt;span style=&quot;color: #cccccc&quot;&gt; {&lt;/span&gt;&lt;/div&gt;&lt;div&gt;&lt;span style=&quot;color: #cccccc&quot;&gt;  source           &lt;/span&gt;&lt;span style=&quot;color: #d4d4d4&quot;&gt;=&lt;/span&gt;&lt;span style=&quot;color: #cccccc&quot;&gt; &lt;/span&gt;&lt;span style=&quot;color: #ce9178&quot;&gt;&quot;../../modules/iam&quot;&lt;/span&gt;&lt;/div&gt;&lt;div&gt;&lt;span style=&quot;color: #cccccc&quot;&gt;  environment      &lt;/span&gt;&lt;span style=&quot;color: #d4d4d4&quot;&gt;=&lt;/span&gt;&lt;span style=&quot;color: #cccccc&quot;&gt; &lt;/span&gt;&lt;span style=&quot;color: #4ec9b0&quot;&gt;var&lt;/span&gt;&lt;span style=&quot;color: #cccccc&quot;&gt;.&lt;/span&gt;&lt;span style=&quot;color: #9cdcfe&quot;&gt;environment&lt;/span&gt;&lt;/div&gt;&lt;div&gt;&lt;span style=&quot;color: #cccccc&quot;&gt;  application_name &lt;/span&gt;&lt;span style=&quot;color: #d4d4d4&quot;&gt;=&lt;/span&gt;&lt;span style=&quot;color: #cccccc&quot;&gt; &lt;/span&gt;&lt;span style=&quot;color: #4ec9b0&quot;&gt;var&lt;/span&gt;&lt;span style=&quot;color: #cccccc&quot;&gt;.&lt;/span&gt;&lt;span style=&quot;color: #9cdcfe&quot;&gt;application_name&lt;/span&gt;&lt;/div&gt;&lt;div&gt;&lt;span style=&quot;color: #cccccc&quot;&gt;  region           &lt;/span&gt;&lt;span style=&quot;color: #d4d4d4&quot;&gt;=&lt;/span&gt;&lt;span style=&quot;color: #cccccc&quot;&gt; &lt;/span&gt;&lt;span style=&quot;color: #4ec9b0&quot;&gt;var&lt;/span&gt;&lt;span style=&quot;color: #cccccc&quot;&gt;.&lt;/span&gt;&lt;span style=&quot;color: #9cdcfe&quot;&gt;region&lt;/span&gt;&lt;/div&gt;&lt;div&gt;&lt;span style=&quot;color: #cccccc&quot;&gt;}&lt;/span&gt;&lt;/div&gt;&lt;br&gt;&lt;div&gt;&lt;span style=&quot;color: #569cd6&quot;&gt;module&lt;/span&gt;&lt;span style=&quot;color: #cccccc&quot;&gt; &lt;/span&gt;&lt;span style=&quot;color: #ce9178&quot;&gt;&quot;code_s3_objects&quot;&lt;/span&gt;&lt;span style=&quot;color: #cccccc&quot;&gt; {&lt;/span&gt;&lt;/div&gt;&lt;div&gt;&lt;span style=&quot;color: #cccccc&quot;&gt;  source            &lt;/span&gt;&lt;span style=&quot;color: #d4d4d4&quot;&gt;=&lt;/span&gt;&lt;span style=&quot;color: #cccccc&quot;&gt; &lt;/span&gt;&lt;span style=&quot;color: #ce9178&quot;&gt;&quot;../../modules/code-s3-objects&quot;&lt;/span&gt;&lt;/div&gt;&lt;div&gt;&lt;span style=&quot;color: #cccccc&quot;&gt;  environment       &lt;/span&gt;&lt;span style=&quot;color: #d4d4d4&quot;&gt;=&lt;/span&gt;&lt;span style=&quot;color: #cccccc&quot;&gt; &lt;/span&gt;&lt;span style=&quot;color: #4ec9b0&quot;&gt;var&lt;/span&gt;&lt;span style=&quot;color: #cccccc&quot;&gt;.&lt;/span&gt;&lt;span style=&quot;color: #9cdcfe&quot;&gt;environment&lt;/span&gt;&lt;/div&gt;&lt;div&gt;&lt;span style=&quot;color: #cccccc&quot;&gt;  application_name  &lt;/span&gt;&lt;span style=&quot;color: #d4d4d4&quot;&gt;=&lt;/span&gt;&lt;span style=&quot;color: #cccccc&quot;&gt; &lt;/span&gt;&lt;span style=&quot;color: #4ec9b0&quot;&gt;var&lt;/span&gt;&lt;span style=&quot;color: #cccccc&quot;&gt;.&lt;/span&gt;&lt;span style=&quot;color: #9cdcfe&quot;&gt;application_name&lt;/span&gt;&lt;/div&gt;&lt;div&gt;&lt;span style=&quot;color: #cccccc&quot;&gt;  region            &lt;/span&gt;&lt;span style=&quot;color: #d4d4d4&quot;&gt;=&lt;/span&gt;&lt;span style=&quot;color: #cccccc&quot;&gt; &lt;/span&gt;&lt;span style=&quot;color: #4ec9b0&quot;&gt;var&lt;/span&gt;&lt;span style=&quot;color: #cccccc&quot;&gt;.&lt;/span&gt;&lt;span style=&quot;color: #9cdcfe&quot;&gt;region&lt;/span&gt;&lt;/div&gt;&lt;div&gt;&lt;span style=&quot;color: #cccccc&quot;&gt;  document_name     &lt;/span&gt;&lt;span style=&quot;color: #d4d4d4&quot;&gt;=&lt;/span&gt;&lt;span style=&quot;color: #cccccc&quot;&gt; &lt;/span&gt;&lt;span style=&quot;color: #4ec9b0&quot;&gt;module&lt;/span&gt;&lt;span style=&quot;color: #cccccc&quot;&gt;.automation_document.document_name&lt;/span&gt;&lt;/div&gt;&lt;div&gt;&lt;span style=&quot;color: #cccccc&quot;&gt;}&lt;/span&gt;&lt;/div&gt;&lt;br&gt;&lt;div&gt;&lt;span style=&quot;color: #569cd6&quot;&gt;module&lt;/span&gt;&lt;span style=&quot;color: #cccccc&quot;&gt; &lt;/span&gt;&lt;span style=&quot;color: #ce9178&quot;&gt;&quot;automation_document&quot;&lt;/span&gt;&lt;span style=&quot;color: #cccccc&quot;&gt; {&lt;/span&gt;&lt;/div&gt;&lt;div&gt;&lt;span style=&quot;color: #cccccc&quot;&gt;  source           &lt;/span&gt;&lt;span style=&quot;color: #d4d4d4&quot;&gt;=&lt;/span&gt;&lt;span style=&quot;color: #cccccc&quot;&gt; &lt;/span&gt;&lt;span style=&quot;color: #ce9178&quot;&gt;&quot;../../modules/ssm-automation&quot;&lt;/span&gt;&lt;/div&gt;&lt;div&gt;&lt;span style=&quot;color: #cccccc&quot;&gt;  rebuild_version  &lt;/span&gt;&lt;span style=&quot;color: #d4d4d4&quot;&gt;=&lt;/span&gt;&lt;span style=&quot;color: #cccccc&quot;&gt; &lt;/span&gt;&lt;span style=&quot;color: #b5cea8&quot;&gt;1&lt;/span&gt;&lt;/div&gt;&lt;div&gt;&lt;span style=&quot;color: #cccccc&quot;&gt;  environment      &lt;/span&gt;&lt;span style=&quot;color: #d4d4d4&quot;&gt;=&lt;/span&gt;&lt;span style=&quot;color: #cccccc&quot;&gt; &lt;/span&gt;&lt;span style=&quot;color: #4ec9b0&quot;&gt;var&lt;/span&gt;&lt;span style=&quot;color: #cccccc&quot;&gt;.&lt;/span&gt;&lt;span style=&quot;color: #9cdcfe&quot;&gt;environment&lt;/span&gt;&lt;/div&gt;&lt;div&gt;&lt;span style=&quot;color: #cccccc&quot;&gt;  application_name &lt;/span&gt;&lt;span style=&quot;color: #d4d4d4&quot;&gt;=&lt;/span&gt;&lt;span style=&quot;color: #cccccc&quot;&gt; &lt;/span&gt;&lt;span style=&quot;color: #4ec9b0&quot;&gt;var&lt;/span&gt;&lt;span style=&quot;color: #cccccc&quot;&gt;.&lt;/span&gt;&lt;span style=&quot;color: #9cdcfe&quot;&gt;application_name&lt;/span&gt;&lt;/div&gt;&lt;div&gt;&lt;span style=&quot;color: #cccccc&quot;&gt;  ssm_role         &lt;/span&gt;&lt;span style=&quot;color: #d4d4d4&quot;&gt;=&lt;/span&gt;&lt;span style=&quot;color: #cccccc&quot;&gt; &lt;/span&gt;&lt;span style=&quot;color: #4ec9b0&quot;&gt;module&lt;/span&gt;&lt;span style=&quot;color: #cccccc&quot;&gt;.iam.ssm_role_name&lt;/span&gt;&lt;/div&gt;&lt;div&gt;&lt;span style=&quot;color: #cccccc&quot;&gt;}&lt;/span&gt;&lt;/div&gt;&lt;br&gt;&lt;div&gt;&lt;span style=&quot;color: #569cd6&quot;&gt;module&lt;/span&gt;&lt;span style=&quot;color: #cccccc&quot;&gt; &lt;/span&gt;&lt;span style=&quot;color: #ce9178&quot;&gt;&quot;serverless_code&quot;&lt;/span&gt;&lt;span style=&quot;color: #cccccc&quot;&gt; {&lt;/span&gt;&lt;/div&gt;&lt;div&gt;&lt;span style=&quot;color: #cccccc&quot;&gt;  source                         &lt;/span&gt;&lt;span style=&quot;color: #d4d4d4&quot;&gt;=&lt;/span&gt;&lt;span style=&quot;color: #cccccc&quot;&gt; &lt;/span&gt;&lt;span style=&quot;color: #ce9178&quot;&gt;&quot;../../modules/serverless-code&quot;&lt;/span&gt;&lt;/div&gt;&lt;div&gt;&lt;span style=&quot;color: #cccccc&quot;&gt;  rebuild_version                &lt;/span&gt;&lt;span style=&quot;color: #d4d4d4&quot;&gt;=&lt;/span&gt;&lt;span style=&quot;color: #cccccc&quot;&gt; &lt;/span&gt;&lt;span style=&quot;color: #b5cea8&quot;&gt;1&lt;/span&gt;&lt;/div&gt;&lt;div&gt;&lt;span style=&quot;color: #cccccc&quot;&gt;  sns_email                      &lt;/span&gt;&lt;span style=&quot;color: #d4d4d4&quot;&gt;=&lt;/span&gt;&lt;span style=&quot;color: #cccccc&quot;&gt; &lt;/span&gt;&lt;span style=&quot;color: #4ec9b0&quot;&gt;var&lt;/span&gt;&lt;span style=&quot;color: #cccccc&quot;&gt;.&lt;/span&gt;&lt;span style=&quot;color: #9cdcfe&quot;&gt;owner_email&lt;/span&gt;&lt;/div&gt;&lt;div&gt;&lt;span style=&quot;color: #cccccc&quot;&gt;  environment                    &lt;/span&gt;&lt;span style=&quot;color: #d4d4d4&quot;&gt;=&lt;/span&gt;&lt;span style=&quot;color: #cccccc&quot;&gt; &lt;/span&gt;&lt;span style=&quot;color: #4ec9b0&quot;&gt;var&lt;/span&gt;&lt;span style=&quot;color: #cccccc&quot;&gt;.&lt;/span&gt;&lt;span style=&quot;color: #9cdcfe&quot;&gt;environment&lt;/span&gt;&lt;/div&gt;&lt;div&gt;&lt;span style=&quot;color: #cccccc&quot;&gt;  application_name               &lt;/span&gt;&lt;span style=&quot;color: #d4d4d4&quot;&gt;=&lt;/span&gt;&lt;span style=&quot;color: #cccccc&quot;&gt; &lt;/span&gt;&lt;span style=&quot;color: #4ec9b0&quot;&gt;var&lt;/span&gt;&lt;span style=&quot;color: #cccccc&quot;&gt;.&lt;/span&gt;&lt;span style=&quot;color: #9cdcfe&quot;&gt;application_name&lt;/span&gt;&lt;/div&gt;&lt;div&gt;&lt;span style=&quot;color: #cccccc&quot;&gt;  s3_bucket_name                 &lt;/span&gt;&lt;span style=&quot;color: #d4d4d4&quot;&gt;=&lt;/span&gt;&lt;span style=&quot;color: #cccccc&quot;&gt; &lt;/span&gt;&lt;span style=&quot;color: #4ec9b0&quot;&gt;module&lt;/span&gt;&lt;span style=&quot;color: #cccccc&quot;&gt;.code_s3_objects.bucket_id&lt;/span&gt;&lt;/div&gt;&lt;div&gt;&lt;span style=&quot;color: #cccccc&quot;&gt;  event_bridge_lambda_role       &lt;/span&gt;&lt;span style=&quot;color: #d4d4d4&quot;&gt;=&lt;/span&gt;&lt;span style=&quot;color: #cccccc&quot;&gt; &lt;/span&gt;&lt;span style=&quot;color: #4ec9b0&quot;&gt;module&lt;/span&gt;&lt;span style=&quot;color: #cccccc&quot;&gt;.iam.eventbridge_lambda_role_name&lt;/span&gt;&lt;/div&gt;&lt;div&gt;&lt;span style=&quot;color: #cccccc&quot;&gt;  event_bridge_stepfunction_role &lt;/span&gt;&lt;span style=&quot;color: #d4d4d4&quot;&gt;=&lt;/span&gt;&lt;span style=&quot;color: #cccccc&quot;&gt; &lt;/span&gt;&lt;span style=&quot;color: #4ec9b0&quot;&gt;module&lt;/span&gt;&lt;span style=&quot;color: #cccccc&quot;&gt;.iam.eventbridge_lambda_role_name&lt;/span&gt;&lt;/div&gt;&lt;div&gt;&lt;span style=&quot;color: #cccccc&quot;&gt;  ep_lambda_role                 &lt;/span&gt;&lt;span style=&quot;color: #d4d4d4&quot;&gt;=&lt;/span&gt;&lt;span style=&quot;color: #cccccc&quot;&gt; &lt;/span&gt;&lt;span style=&quot;color: #4ec9b0&quot;&gt;module&lt;/span&gt;&lt;span style=&quot;color: #cccccc&quot;&gt;.iam.ep_lambda_execution_role_name&lt;/span&gt;&lt;/div&gt;&lt;div&gt;&lt;span style=&quot;color: #cccccc&quot;&gt;  crp_lambda_role                &lt;/span&gt;&lt;span style=&quot;color: #d4d4d4&quot;&gt;=&lt;/span&gt;&lt;span style=&quot;color: #cccccc&quot;&gt; &lt;/span&gt;&lt;span style=&quot;color: #4ec9b0&quot;&gt;module&lt;/span&gt;&lt;span style=&quot;color: #cccccc&quot;&gt;.iam.crp_lambda_execution_role_name&lt;/span&gt;&lt;/div&gt;&lt;div&gt;&lt;span style=&quot;color: #cccccc&quot;&gt;  stepfunction_role              &lt;/span&gt;&lt;span style=&quot;color: #d4d4d4&quot;&gt;=&lt;/span&gt;&lt;span style=&quot;color: #cccccc&quot;&gt; &lt;/span&gt;&lt;span style=&quot;color: #4ec9b0&quot;&gt;module&lt;/span&gt;&lt;span style=&quot;color: #cccccc&quot;&gt;.iam.stepfunction_role_name&lt;/span&gt;&lt;/div&gt;&lt;div&gt;&lt;span style=&quot;color: #cccccc&quot;&gt;}&lt;/span&gt;&lt;/div&gt;&lt;/div&gt;" style="text;whiteSpace=wrap;html=1;" parent="1" vertex="1">
          <mxGeometry x="570" y="140" width="580" height="640" as="geometry" />
        </mxCell>
        <mxCell id="lIrOp1fcAPk25jo59Fhx-19" style="edgeStyle=orthogonalEdgeStyle;rounded=0;orthogonalLoop=1;jettySize=auto;html=1;entryX=0.967;entryY=0.564;entryDx=0;entryDy=0;entryPerimeter=0;fillColor=#d5e8d4;strokeColor=#82b366;" parent="1" source="lIrOp1fcAPk25jo59Fhx-18" target="lIrOp1fcAPk25jo59Fhx-12" edge="1">
          <mxGeometry relative="1" as="geometry">
            <Array as="points">
              <mxPoint x="530" y="430" />
              <mxPoint x="530" y="631" />
            </Array>
          </mxGeometry>
        </mxCell>
        <mxCell id="lIrOp1fcAPk25jo59Fhx-20" style="edgeStyle=orthogonalEdgeStyle;rounded=0;orthogonalLoop=1;jettySize=auto;html=1;entryX=0.967;entryY=0.615;entryDx=0;entryDy=0;entryPerimeter=0;fillColor=#d5e8d4;strokeColor=#82b366;" parent="1" source="lIrOp1fcAPk25jo59Fhx-18" target="lIrOp1fcAPk25jo59Fhx-13" edge="1">
          <mxGeometry relative="1" as="geometry">
            <Array as="points">
              <mxPoint x="510" y="280" />
              <mxPoint x="510" y="532" />
            </Array>
          </mxGeometry>
        </mxCell>
        <mxCell id="lIrOp1fcAPk25jo59Fhx-21" style="edgeStyle=orthogonalEdgeStyle;rounded=0;orthogonalLoop=1;jettySize=auto;html=1;fillColor=#d5e8d4;strokeColor=#82b366;" parent="1" source="lIrOp1fcAPk25jo59Fhx-18" target="lIrOp1fcAPk25jo59Fhx-14" edge="1">
          <mxGeometry relative="1" as="geometry">
            <Array as="points">
              <mxPoint x="540" y="570" />
              <mxPoint x="540" y="718" />
            </Array>
          </mxGeometry>
        </mxCell>
      </root>
    </mxGraphModel>
  </diagram>
</mxfile>
